<svg width="1854" height="549" viewBox="0 0 1854 549" fill="none" xmlns="http://www.w3.org/2000/svg">
<path d="M1785.11 549H69.4849C31.0549 549 0.859863 518.805 0.859863 480.375V68.625C0.859863 30.195 31.0549 0 69.4849 0H1785.11C1823.54 0 1853.73 30.195 1853.73 68.625V480.375C1853.73 517.433 1823.54 549 1785.11 549Z" fill="black"/>
<path d="M1785.11 10.98C1816.68 10.98 1842.75 37.0575 1842.75 68.625V480.375C1842.75 511.943 1816.68 538.02 1785.11 538.02H69.4849C37.9174 538.02 11.8399 511.943 11.8399 480.375V68.625C11.8399 37.0575 37.9174 10.98 69.4849 10.98H1785.11ZM1785.11 0H69.4849C31.0549 0 0.859863 30.195 0.859863 68.625V480.375C0.859863 518.805 31.0549 549 69.4849 549H1785.11C1823.54 549 1853.73 518.805 1853.73 480.375V68.625C1853.73 31.5675 1823.54 0 1785.11 0Z" fill="#A7A6A6"/>
<path d="M935.534 299.207C902.594 299.207 876.516 323.912 876.516 358.224C876.516 391.164 902.594 417.242 935.534 417.242C968.474 417.242 994.551 392.537 994.551 358.224C994.551 322.539 968.474 299.207 935.534 299.207ZM935.534 392.537C917.691 392.537 902.594 377.439 902.594 356.852C902.594 336.264 917.691 321.167 935.534 321.167C953.376 321.167 968.474 334.892 968.474 356.852C968.474 377.439 953.376 392.537 935.534 392.537ZM807.891 299.207C774.951 299.207 748.874 323.912 748.874 358.224C748.874 391.164 774.951 417.242 807.891 417.242C840.831 417.242 866.909 392.537 866.909 358.224C866.909 322.539 840.831 299.207 807.891 299.207ZM807.891 392.537C790.049 392.537 774.951 377.439 774.951 356.852C774.951 336.264 790.049 321.167 807.891 321.167C825.734 321.167 840.831 334.892 840.831 356.852C840.831 377.439 825.734 392.537 807.891 392.537ZM655.544 317.049V341.754H714.561C713.189 355.479 707.699 366.459 700.836 373.322C692.601 381.557 678.876 391.164 655.544 391.164C618.486 391.164 591.036 362.342 591.036 325.284C591.036 288.227 619.859 259.404 655.544 259.404C674.759 259.404 689.856 267.639 700.836 277.247L718.679 259.404C703.581 245.679 684.366 234.699 656.916 234.699C607.506 234.699 564.959 275.874 564.959 325.284C564.959 374.694 607.506 415.869 656.916 415.869C684.366 415.869 703.581 407.634 720.051 389.792C736.521 373.322 742.011 349.989 742.011 332.147C742.011 326.657 742.011 321.167 740.639 317.049H655.544ZM1278.66 336.264C1273.17 322.539 1259.44 299.207 1229.25 299.207C1199.05 299.207 1174.35 322.539 1174.35 358.224C1174.35 391.164 1199.05 417.242 1231.99 417.242C1258.07 417.242 1274.54 400.772 1280.03 391.164L1260.82 377.439C1253.95 387.047 1245.72 393.909 1231.99 393.909C1218.27 393.909 1210.03 388.419 1203.17 376.067L1281.4 343.127L1278.66 336.264ZM1199.05 355.479C1199.05 333.519 1216.9 321.167 1229.25 321.167C1238.86 321.167 1248.46 326.657 1251.21 333.519L1199.05 355.479ZM1134.55 411.752H1160.62V240.189H1134.55V411.752ZM1093.37 311.559C1086.51 304.697 1075.53 297.834 1061.8 297.834C1032.98 297.834 1005.53 323.912 1005.53 356.852C1005.53 389.792 1031.61 414.497 1061.8 414.497C1075.53 414.497 1086.51 407.634 1092 400.772H1093.37V409.007C1093.37 430.967 1081.02 443.319 1061.8 443.319C1046.71 443.319 1035.73 432.339 1032.98 422.732L1011.02 432.339C1017.88 447.437 1034.35 466.652 1063.18 466.652C1093.37 466.652 1118.08 448.809 1118.08 406.262V301.952H1093.37V311.559ZM1063.18 392.537C1045.33 392.537 1030.24 377.439 1030.24 356.852C1030.24 336.264 1045.33 321.167 1063.18 321.167C1081.02 321.167 1094.74 336.264 1094.74 356.852C1094.74 377.439 1081.02 392.537 1063.18 392.537ZM1398.07 240.189H1336.3V411.752H1362.38V347.244H1398.07C1426.89 347.244 1454.34 326.657 1454.34 293.717C1454.34 260.777 1426.89 240.189 1398.07 240.189ZM1399.44 322.539H1362.38V263.522H1399.44C1418.65 263.522 1429.63 279.992 1429.63 292.344C1428.26 307.442 1417.28 322.539 1399.44 322.539ZM1557.28 297.834C1538.06 297.834 1518.85 306.069 1511.98 323.912L1535.32 333.519C1540.81 323.912 1549.04 321.167 1558.65 321.167C1572.37 321.167 1584.73 329.402 1586.1 343.127V344.499C1581.98 341.754 1571 337.637 1560.02 337.637C1535.32 337.637 1510.61 351.362 1510.61 376.067C1510.61 399.399 1531.2 414.497 1553.16 414.497C1571 414.497 1579.24 406.262 1586.1 398.027H1587.47V411.752H1612.18V345.872C1609.43 315.677 1586.1 297.834 1557.28 297.834ZM1554.53 392.537C1546.3 392.537 1533.94 388.419 1533.94 377.439C1533.94 363.714 1549.04 359.597 1561.39 359.597C1572.37 359.597 1577.86 362.342 1584.73 365.087C1581.98 381.557 1568.26 392.537 1554.53 392.537ZM1698.64 301.952L1669.82 376.067H1668.45L1638.25 301.952H1610.8L1656.1 406.262L1630.02 463.907H1656.1L1726.09 301.952H1698.64ZM1468.06 411.752H1494.14V240.189H1468.06V411.752Z" fill="white"/>
<path d="M143.6 102.938C139.483 108.428 138.11 113.918 138.11 123.525V425.475C138.11 433.71 140.855 440.573 144.973 444.69L146.345 446.063L316.535 275.872V274.5V273.128L143.6 102.938Z" fill="#5BC9F4"/>
<path d="M371.434 333.522L315.161 277.249V274.504V273.132L371.434 216.859L372.806 218.232L440.059 256.662C459.274 267.642 459.274 285.484 440.059 296.464L371.434 333.522Z" fill="url(#paint0_linear_1221_181)"/>
<path d="M372.806 332.145L315.161 274.5L143.599 446.062C150.461 452.925 160.069 452.925 172.421 447.435L372.806 332.145Z" fill="url(#paint1_linear_1221_181)"/>
<path d="M372.806 216.857L172.421 102.939C160.069 96.077 150.461 97.4495 143.599 104.312L315.161 274.502L372.806 216.857Z" fill="url(#paint2_linear_1221_181)"/>
<path d="M567.7 178.424V96.0742H592.405C604.758 96.0742 615.738 100.192 622.6 107.054C630.835 115.289 633.58 124.897 633.58 137.249C633.58 149.602 629.463 159.209 622.6 167.444C615.738 174.307 604.758 178.424 592.405 178.424H567.7ZM578.68 168.817H593.778C603.385 168.817 610.248 166.072 615.738 160.582C621.228 155.092 623.973 146.857 623.973 137.249C623.973 127.642 621.228 119.407 615.738 113.917C610.248 108.427 602.013 105.682 593.778 105.682H578.68V168.817Z" fill="white" stroke="white" stroke-width="0.2" stroke-miterlimit="10"/>
<path d="M648.676 178.424V96.0742H659.656V178.424H648.676Z" fill="white" stroke="white" stroke-width="0.2" stroke-miterlimit="10"/>
<path d="M702.208 179.794C696.718 179.794 689.855 178.422 684.365 174.304C678.875 170.187 674.758 164.697 673.385 157.834L682.993 153.717C684.365 157.834 687.11 161.952 689.855 164.697C693.973 167.442 698.09 168.814 702.208 168.814C706.325 168.814 710.443 167.442 714.56 164.697C717.305 161.952 720.05 159.207 720.05 155.089C720.05 150.972 718.678 146.854 714.56 144.109C711.815 141.364 706.325 138.619 699.463 137.247C692.6 134.502 687.11 131.757 682.993 129.012C678.875 124.894 677.503 120.777 677.503 115.287C677.503 109.797 680.248 104.307 684.365 100.189C688.483 96.0717 695.345 93.3267 702.208 93.3267C709.07 93.3267 714.56 94.6992 718.678 98.8167C722.795 102.934 725.54 105.679 726.913 109.797L717.305 113.914C715.933 111.169 714.56 108.424 711.815 107.052C709.07 104.307 704.953 104.307 700.835 104.307C696.718 104.307 693.973 105.679 689.855 107.052C688.483 109.797 687.11 112.542 687.11 116.659C687.11 119.404 688.483 122.149 691.228 124.894C693.973 127.639 698.09 129.012 703.58 130.384C707.698 131.757 710.443 133.129 713.188 134.502C715.933 135.874 718.678 137.247 721.423 139.992C724.168 141.364 726.913 144.109 728.285 148.227C729.658 152.344 731.03 155.089 731.03 159.207C731.03 163.324 729.658 167.442 728.285 170.187C726.913 172.932 724.168 175.677 721.423 177.049C717.305 177.049 714.56 178.422 711.815 178.422C709.07 179.794 704.953 179.794 702.208 179.794Z" fill="white" stroke="white" stroke-width="0.2" stroke-miterlimit="10"/>
<path d="M755.731 178.424H744.751V96.0742H772.201C779.064 96.0742 784.554 98.8192 790.044 102.937C795.534 107.054 798.279 113.917 798.279 120.779C798.279 127.642 795.534 133.132 790.044 138.622C784.554 142.739 779.064 145.484 772.201 145.484H755.731V178.424ZM755.731 134.504H773.574C777.691 134.504 781.809 133.132 784.554 130.387C787.299 127.642 788.671 123.524 788.671 120.779C788.671 116.662 787.299 113.917 784.554 111.172C781.809 108.427 777.691 107.054 773.574 107.054H755.731V134.504Z" fill="white" stroke="white" stroke-width="0.2" stroke-miterlimit="10"/>
<path d="M879.256 167.443C871.021 175.678 861.414 179.795 849.061 179.795C836.709 179.795 827.101 175.678 818.866 167.443C810.631 159.208 806.514 149.6 806.514 137.248C806.514 124.895 810.631 115.288 818.866 107.053C827.101 98.8177 836.709 94.7002 849.061 94.7002C861.414 94.7002 871.021 98.8177 879.256 107.053C887.491 115.288 891.609 124.895 891.609 137.248C891.609 149.6 887.491 159.208 879.256 167.443ZM827.101 160.58C832.591 166.07 840.826 170.188 849.061 170.188C857.296 170.188 865.531 167.443 871.021 160.58C876.511 155.09 880.629 146.855 880.629 137.248C880.629 127.64 877.884 119.405 871.021 113.915C865.531 108.425 857.296 104.308 849.061 104.308C840.826 104.308 832.591 107.053 827.101 113.915C821.611 119.405 817.494 127.64 817.494 137.248C817.494 146.855 820.239 155.09 827.101 160.58Z" fill="white" stroke="white" stroke-width="0.2" stroke-miterlimit="10"/>
<path d="M906.71 178.424V96.0742H919.063L958.865 160.582V144.112V96.0742H969.845V178.424H958.865L916.318 111.172V127.642V178.424H906.71Z" fill="white" stroke="white" stroke-width="0.2" stroke-miterlimit="10"/>
<path d="M989.061 178.424V96.0742H1000.04V178.424H989.061Z" fill="white" stroke="white" stroke-width="0.2" stroke-miterlimit="10"/>
<path d="M1017.88 178.424V96.0742H1048.07C1054.94 96.0742 1060.43 98.8192 1064.54 102.937C1068.66 107.054 1071.41 112.544 1071.41 119.407C1071.41 123.524 1070.03 126.269 1068.66 130.387C1067.29 133.132 1064.54 135.877 1060.43 137.249C1064.54 138.622 1067.29 141.367 1070.03 144.112C1072.78 146.857 1074.15 150.974 1074.15 156.464C1074.15 163.327 1071.41 168.817 1067.29 172.934C1061.8 177.052 1056.31 179.797 1049.45 179.797H1017.88V178.424ZM1028.86 131.759H1048.07C1052.19 131.759 1054.94 130.387 1057.68 127.642C1060.43 124.897 1061.8 122.152 1061.8 119.407C1061.8 116.662 1060.43 113.917 1057.68 111.172C1054.94 108.427 1052.19 107.054 1048.07 107.054H1028.86V131.759ZM1028.86 168.817H1050.82C1054.94 168.817 1057.68 167.444 1060.43 164.699C1063.17 161.954 1064.54 159.209 1064.54 155.092C1064.54 152.347 1063.17 148.229 1060.43 145.484C1057.68 142.739 1054.94 141.367 1050.82 141.367H1030.23V168.817H1028.86Z" fill="white" stroke="white" stroke-width="0.2" stroke-miterlimit="10"/>
<path d="M1087.88 178.424V96.0742H1098.86V168.817H1134.54V178.424H1087.88Z" fill="white" stroke="white" stroke-width="0.2" stroke-miterlimit="10"/>
<path d="M1196.3 105.682H1159.25V131.759H1193.56V141.367H1159.25V167.444H1196.3V178.424H1148.27V96.0742H1196.3V105.682Z" fill="white" stroke="white" stroke-width="0.2" stroke-miterlimit="10"/>
<path d="M1288.26 105.682H1251.21V131.759H1285.52V141.367H1251.21V167.444H1288.26V178.424H1240.23V96.0742H1288.26V105.682Z" fill="white" stroke="white" stroke-width="0.2" stroke-miterlimit="10"/>
<path d="M1304.74 178.424V96.0742H1317.09L1356.89 160.582V144.112V96.0742H1367.87V178.424H1356.89L1314.34 111.172V127.642V178.424H1304.74Z" fill="white" stroke="white" stroke-width="0.2" stroke-miterlimit="10"/>
<defs>
<linearGradient id="paint0_linear_1221_181" x1="427.553" y1="274.509" x2="95.7261" y2="274.509" gradientUnits="userSpaceOnUse">
<stop stop-color="#FEE000"/>
<stop offset="0.1941" stop-color="#FCCF0B"/>
<stop offset="0.5469" stop-color="#FAB318"/>
<stop offset="0.8279" stop-color="#F9A21B"/>
<stop offset="1" stop-color="#F99B1C"/>
</linearGradient>
<linearGradient id="paint1_linear_1221_181" x1="341.439" y1="305.973" x2="29.3396" y2="618.072" gradientUnits="userSpaceOnUse">
<stop stop-color="#EF4547"/>
<stop offset="1" stop-color="#C6186D"/>
</linearGradient>
<linearGradient id="paint2_linear_1221_181" x1="27.9493" y1="-70.4635" x2="282.77" y2="184.357" gradientUnits="userSpaceOnUse">
<stop stop-color="#279E6F"/>
<stop offset="0.3168" stop-color="#4DAB6D"/>
<stop offset="0.7398" stop-color="#6ABA6A"/>
<stop offset="1" stop-color="#74C169"/>
</linearGradient>
</defs>
</svg>
