<?xml version="1.0" encoding="utf-8"?>
<svg width="500" height="500" viewBox="0 0 500 500" xmlns="http://www.w3.org/2000/svg">
  <defs/>
  <path d="M 402.743 457.704 C 353.112 457.704 312.843 416.545 312.843 365.813 C 312.843 322.161 373.811 240.274 390.853 218.259 C 393.598 214.711 397.838 212.64 402.326 212.658 L 403.166 212.658 C 407.657 212.658 411.826 214.666 414.638 218.259 C 431.68 240.274 492.649 322.161 492.649 365.813 C 492.649 416.545 452.379 457.704 402.743 457.704 Z M 357.793 373.472 C 357.793 369.259 354.424 365.813 350.3 365.813 C 346.181 365.813 342.808 369.259 342.808 373.472 C 342.808 403.096 366.265 427.074 395.255 427.074 C 399.374 427.074 402.743 423.628 402.743 419.415 C 402.743 415.202 399.374 411.761 395.255 411.761 C 374.557 411.761 357.793 394.624 357.793 373.472 Z M 256.052 272.737 C 318.983 272.737 369.961 220.092 369.961 155.094 C 369.961 143.842 368.394 132.958 365.55 122.595 C 363.345 114.649 353.867 112.888 348.248 118.696 L 293.568 175.168 C 291.461 177.356 288.564 178.605 285.527 178.623 L 244.665 178.623 C 238.394 178.623 233.269 173.327 233.269 166.854 L 233.269 124.653 C 233.269 121.567 234.477 118.548 236.611 116.343 L 291.291 59.875 C 296.919 54.067 295.136 44.288 287.517 42.006 C 277.298 38.992 266.702 37.456 256.052 37.447 C 193.12 37.447 142.142 90.092 142.142 155.094 C 142.142 169.14 144.563 182.665 148.902 195.166 L 19.616 328.688 C 10.574 338.026 5.449 350.747 5.449 363.981 C 5.449 391.552 27.091 413.908 53.786 413.908 C 66.602 413.908 78.923 408.616 87.961 399.278 L 217.251 265.752 C 229.657 270.401 242.801 272.768 256.052 272.737 Z M 62.406 337.438 C 75.558 337.438 83.774 352.149 77.202 363.909 C 74.152 369.371 68.506 372.731 62.406 372.731 C 49.249 372.731 41.029 358.024 47.605 346.265 C 50.664 340.802 56.297 337.438 62.406 337.438 Z" style=""/>
</svg>