<?xml version="1.0" encoding="utf-8"?>
<svg viewBox="0 0 500 500" xmlns="http://www.w3.org/2000/svg">
  <defs/>
  <path fill="currentColor" d="M 328.475 475.298 C 324.157 479.64 319.155 482.967 313.446 485.325 C 307.766 487.684 301.773 488.864 295.452 488.864 C 289.175 488.864 283.067 487.684 277.17 485.325 C 271.273 482.967 266.18 479.64 261.838 475.298 L 228.816 442.276 C 224.498 437.958 221.268 433.149 219.097 427.84 C 216.95 422.554 215.679 417.129 215.251 411.613 C 214.875 406.116 215.559 400.618 217.33 395.102 C 219.121 389.604 221.764 384.487 225.278 379.77 L 228.816 375.053 L 36.575 100.251 L 128.565 8.261 L 428.72 308.416 C 433.062 312.753 436.389 317.755 438.747 323.464 C 441.106 329.173 442.286 335.166 442.286 341.438 C 442.286 347.735 441.106 353.824 438.747 359.721 C 436.389 365.618 433.062 370.735 428.72 375.053 L 328.475 475.298 Z M 295.452 441.684 L 395.111 342.026 L 362.084 308.416 L 261.838 408.662 L 295.452 441.684 Z" style=""/>
</svg>