<?xml version="1.0" encoding="utf-8"?>
<svg viewBox="0 0 500 500" xmlns="http://www.w3.org/2000/svg">
  <defs/>
  <path d="M 196.156 108.791 C 211.136 117.998 224.133 130.19 234.311 144.597 C 237.421 149.001 240.271 153.627 242.808 158.386 C 245.344 153.584 248.194 149.001 251.305 144.597 C 261.493 130.19 274.479 117.998 289.47 108.791 C 309.345 96.556 332.698 89.531 357.563 89.531 L 361.969 89.531 C 366.906 89.531 370.915 93.54 370.915 98.477 C 370.915 164.306 317.572 217.638 251.754 217.638 L 242.808 217.638 L 233.872 217.638 C 168.045 217.638 114.712 164.306 114.712 98.477 C 114.712 93.54 118.721 89.531 123.658 89.531 L 128.052 89.531 C 152.918 89.531 176.27 96.556 196.156 108.791 Z M 248.81 20.854 C 255.794 28.38 275.994 52.796 286.359 94.072 C 269.447 103.676 254.593 116.672 242.808 132.143 C 231.022 116.672 216.168 103.718 199.267 94.072 C 209.591 52.796 229.78 28.38 236.805 20.854 C 238.361 19.214 240.543 18.369 242.808 18.369 C 245.073 18.369 247.255 19.214 248.81 20.854 Z" style=""/>
  <path d="M 68.436 153.563 C 68.436 136.986 55.012 123.562 38.434 123.562 C 21.857 123.562 8.433 136.986 8.433 153.563 L 8.433 195.57 L 8.433 243.567 L 8.433 319.699 C 8.433 338.834 16.012 357.133 29.509 370.631 L 104.44 445.561 C 113.439 454.56 125.672 459.591 138.418 459.591 L 188.442 459.591 C 208.317 459.591 224.446 443.463 224.446 423.587 L 224.446 364.408 C 224.446 342.133 215.604 320.753 199.851 305.001 L 180.874 286.023 L 169.474 274.624 L 145.465 250.625 C 136.091 241.251 120.87 241.251 111.496 250.625 C 102.112 259.999 102.112 275.218 111.496 284.603 L 135.496 308.602 L 146.895 320.002 C 155.141 328.248 153.795 341.903 144.118 348.354 C 136.843 353.229 127.092 352.258 120.87 346.026 L 82.466 307.704 C 73.467 298.707 68.436 286.472 68.436 273.726 L 68.436 243.567 L 68.436 183.565 L 68.436 153.563 Z M 428.464 153.563 L 428.464 183.565 L 428.464 243.567 L 428.464 273.726 C 428.464 286.472 423.443 298.707 414.444 307.704 L 376.112 346.026 C 369.881 352.258 360.141 353.229 352.855 348.354 C 343.189 341.903 341.831 328.176 350.089 320.002 L 361.488 308.602 L 385.487 284.603 C 394.861 275.218 394.861 259.999 385.487 250.625 C 376.112 241.251 360.883 241.251 351.508 250.625 L 327.509 274.624 L 316.109 286.023 L 297.132 305.001 C 281.379 320.753 272.528 342.133 272.528 364.408 L 272.528 423.587 C 272.528 443.463 288.655 459.591 308.531 459.591 L 358.554 459.591 C 371.311 459.591 383.535 454.56 392.544 445.561 L 467.464 370.631 C 480.972 357.133 488.541 338.834 488.541 319.699 L 488.541 243.567 L 488.541 195.57 L 488.541 153.563 C 488.541 136.986 475.115 123.562 458.549 123.562 C 441.962 123.562 428.537 136.986 428.537 153.563 L 428.464 153.563 Z" style=""/>
</svg>