<?xml version="1.0" encoding="utf-8"?>
<svg viewBox="0 0 500 500" xmlns="http://www.w3.org/2000/svg">
  <defs/>
  <path d="M 251.175 67.435 C 256.415 60.152 256.415 48.329 251.175 41.045 C 245.934 33.761 237.438 33.761 232.205 41.045 L 151.777 152.902 L 137.246 132.683 C 135.484 130.243 133.059 128.843 130.539 128.843 C 125.307 128.843 121.076 134.726 121.076 142.009 L 121.076 158.966 L 166.437 222.055 L 178.629 222.055 C 183.863 222.055 188.092 216.172 188.092 208.895 C 188.092 205.394 187.089 202.017 185.328 199.576 L 170.797 179.351 L 251.218 67.493 L 251.175 67.435 Z M 156.721 241.516 L 107.087 172.478 C 89.199 170.327 71.399 179.3 58.579 197.123 L 55.229 201.785 C 45.889 214.778 40.655 232.37 40.655 250.727 C 40.655 254.682 43.629 257.245 46.185 255.498 L 67.587 240.643 C 69.681 239.185 71.564 243.032 69.847 245.248 L 16.899 311.434 C 14.979 313.881 13.846 317.375 13.846 321.042 C 13.846 328.152 17.99 333.92 23.1 333.92 L 95.689 333.92 C 111.944 333.92 127.486 324.954 139.007 308.987 C 151.82 291.158 158.23 266.398 156.721 241.516 Z" style=""/>
  <path d="M 305.537 207.026 C 326.564 207.026 339.709 186.237 329.192 169.599 C 324.312 161.882 315.296 157.125 305.537 157.125 C 284.502 157.125 271.365 177.921 281.875 194.553 C 286.754 202.269 295.778 207.026 305.537 207.026 Z M 369.283 290.19 C 397.32 290.19 414.847 262.471 400.821 240.289 C 394.317 229.996 382.291 223.657 369.283 223.657 C 341.239 223.657 323.713 251.376 337.738 273.558 C 344.242 283.845 356.268 290.19 369.283 290.19 Z M 423.912 173.757 C 423.912 160.958 408.74 152.953 396.598 159.355 C 390.96 162.329 387.496 167.815 387.496 173.757 C 387.496 186.562 402.668 194.567 414.81 188.164 C 420.447 185.19 423.912 179.704 423.912 173.757 Z M 423.912 256.92 C 423.912 271.271 417.257 284.213 406.617 293.359 C 427.384 300.433 442.124 318.674 442.124 340.092 C 442.124 367.637 417.654 389.985 387.496 389.985 L 278.215 389.985 C 248.05 389.985 223.578 367.637 223.578 340.092 C 223.578 312.538 248.05 290.19 278.215 290.19 L 328.528 290.19 C 319.873 281.355 314.639 269.711 314.639 256.92 L 241.791 256.92 C 211.625 256.92 187.154 279.276 187.154 306.822 L 187.154 373.354 C 187.154 400.9 211.625 423.248 241.791 423.248 L 423.912 423.248 C 454.078 423.248 478.556 400.9 478.556 373.354 L 478.556 306.822 C 478.556 279.276 454.078 256.92 423.912 256.92 Z M 278.215 306.822 C 258.126 306.822 241.791 321.742 241.791 340.092 C 241.791 358.433 258.126 373.354 278.215 373.354 L 387.496 373.354 C 407.577 373.354 423.912 358.433 423.912 340.092 C 423.912 321.742 407.577 306.822 387.496 306.822 L 369.283 306.822 L 278.215 306.822 Z" style=""/>
</svg>