<svg viewBox="0 0 150 150" xmlns="http://www.w3.org/2000/svg">
<path d="M99.1936 43.8C99.1936 41.8904 99.9582 40.0591 101.319 38.7088C102.681 37.3586 104.527 36.6 106.452 36.6H120.968C122.893 36.6 124.739 37.3586 126.1 38.7088C127.461 40.0591 128.226 41.8904 128.226 43.8C128.226 45.7096 127.461 47.5409 126.1 48.8912C124.739 50.2414 122.893 51 120.968 51H106.452C104.527 51 102.681 50.2414 101.319 48.8912C99.9582 47.5409 99.1936 45.7096 99.1936 43.8ZM106.452 72.6H120.968C122.893 72.6 124.739 71.8414 126.1 70.4912C127.461 69.1409 128.226 67.3096 128.226 65.4C128.226 63.4904 127.461 61.6591 126.1 60.3088C124.739 58.9586 122.893 58.2 120.968 58.2H106.452C104.527 58.2 102.681 58.9586 101.319 60.3088C99.9582 61.6591 99.1936 63.4904 99.1936 65.4C99.1936 67.3096 99.9582 69.1409 101.319 70.4912C102.681 71.8414 104.527 72.6 106.452 72.6ZM150 27V123C150 126.183 148.726 129.235 146.457 131.485C144.188 133.736 141.111 135 137.903 135H89.5161C86.3079 135 83.231 133.736 80.9624 131.485C78.6938 129.235 77.4194 126.183 77.4194 123V113.4H58.0645V120.6H62.9032C64.8282 120.6 66.6743 121.359 68.0355 122.709C69.3966 124.059 70.1613 125.89 70.1613 127.8C70.1613 129.71 69.3966 131.541 68.0355 132.891C66.6743 134.241 64.8282 135 62.9032 135H38.7097C36.7847 135 34.9386 134.241 33.5775 132.891C32.2163 131.541 31.4516 129.71 31.4516 127.8C31.4516 125.89 32.2163 124.059 33.5775 122.709C34.9386 121.359 36.7847 120.6 38.7097 120.6H43.5484V113.4H16.9355C12.4439 113.4 8.13631 111.63 4.96029 108.479C1.78427 105.329 0 101.056 0 96.6V55.8C0 51.3444 1.78427 47.0712 4.96029 43.9206C8.13631 40.77 12.4439 39 16.9355 39H77.4194V27C77.4194 23.8174 78.6938 20.7652 80.9624 18.5147C83.231 16.2643 86.3079 15 89.5161 15H137.903C141.111 15 144.188 16.2643 146.457 18.5147C148.726 20.7652 150 23.8174 150 27ZM77.4194 99V53.4H16.9355C16.2938 53.4 15.6785 53.6529 15.2247 54.1029C14.771 54.553 14.5161 55.1635 14.5161 55.8V96.6C14.5161 97.2365 14.771 97.847 15.2247 98.2971C15.6785 98.7471 16.2938 99 16.9355 99H77.4194ZM135.484 29.4H91.9355V120.6H135.484V29.4ZM113.71 94.2C111.796 94.2 109.925 94.763 108.333 95.8179C106.742 96.8728 105.501 98.3721 104.769 100.126C104.036 101.88 103.845 103.811 104.218 105.673C104.592 107.535 105.513 109.246 106.867 110.588C108.22 111.931 109.944 112.845 111.822 113.216C113.699 113.586 115.645 113.396 117.413 112.669C119.181 111.943 120.693 110.712 121.756 109.133C122.82 107.555 123.387 105.699 123.387 103.8C123.387 101.254 122.368 98.8121 120.553 97.0118C118.738 95.2114 116.276 94.2 113.71 94.2Z" fill="black"/>
</svg>
