<?xml version="1.0" encoding="utf-8"?>
<svg width="128" height="128" viewBox="0 0 24 24" xmlns="http://www.w3.org/2000/svg">
  <defs/>
  <path fill="currentColor" d="M 19.699 5.348 C 18.825 6.21 18.601 7.451 19.014 8.514 L 15.565 11.963 L 15.565 9.518 C 15.565 8.868 15.033 8.337 14.383 8.337 L 13.167 8.337 C 13.202 8.136 13.202 7.947 13.202 7.746 C 13.202 4.155 10.296 1.249 6.705 1.249 C 1.707 1.244 -1.424 6.653 1.073 10.984 C 1.461 11.66 1.969 12.26 2.57 12.755 L 2.57 20.15 C 2.57 20.8 3.102 21.331 3.752 21.331 L 14.383 21.331 C 15.033 21.331 15.565 20.8 15.565 20.15 L 15.565 15.295 L 20.68 10.18 C 21.743 10.593 22.983 10.38 23.834 9.518 L 19.699 5.348 Z M 2.63 8.337 C 2.606 8.136 2.57 7.947 2.57 7.746 C 2.57 5.466 4.425 3.612 6.705 3.612 C 8.985 3.612 10.84 5.466 10.84 7.746 C 10.84 7.947 10.804 8.136 10.781 8.337 L 2.63 8.337 Z" style=""/>
</svg>