<?xml version="1.0" encoding="utf-8"?>
<svg viewBox="0 0 500 500" xmlns="http://www.w3.org/2000/svg">
  <defs/>
  <path d="M 235.51 279.286 C 312.387 280.99 350.945 236.087 328.184 160.469 C 321.357 137.778 284.246 157.178 246.016 157.178 C 163.638 157.178 118.037 138.046 142.837 225.779 C 153.234 262.572 197.29 278.442 235.51 279.286 Z M 197.303 319.414 C 114.954 319.414 48.242 386.129 48.242 468.478 C 48.242 482.189 59.36 493.306 73.07 493.306 L 397.95 493.306 C 411.661 493.306 422.779 482.189 422.779 468.478 C 422.779 386.129 356.067 319.414 273.718 319.414 L 197.303 319.414 Z" style=""/>
  <path d="M 222.899 7.859 C 215.922 7.859 210.287 13.491 210.287 20.471 L 210.287 21.372 L 210.287 60.624 C 210.287 62.829 208.516 64.603 206.308 64.603 C 204.891 64.603 203.55 63.854 202.843 62.593 L 183.927 29.53 C 154.725 43.913 134.631 73.981 134.631 108.739 L 134.631 133.959 L 336.387 133.959 L 336.387 107.793 C 336.036 73.43 316.015 43.795 287.091 29.53 L 268.178 62.593 C 267.468 63.854 266.126 64.603 264.709 64.603 C 262.501 64.603 260.727 62.829 260.727 60.624 L 260.727 21.372 L 260.727 20.471 C 260.727 13.491 255.092 7.859 248.119 7.859 L 222.899 7.859 Z M 128.562 146.564 C 124.937 146.564 122.019 149.482 122.019 153.107 C 122.019 154.961 122.806 156.732 124.306 157.799 C 132.856 164.062 166.078 184.395 235.507 184.395 C 304.942 184.395 338.158 164.062 346.708 157.799 C 348.211 156.694 348.998 154.961 348.998 153.107 C 348.998 149.482 346.084 146.564 342.458 146.564 L 128.562 146.564 Z" style=""/>
</svg>