<svg id="a" data-name="Capa 1" xmlns="http://www.w3.org/2000/svg" viewBox="0 0 500 500">
    <defs>
        <style>
            .b{fill:#f5f5f5}.b,.d,.e{stroke-width:0}.d{fill:#0d804d}.e{fill:#073c3b}
        </style>
    </defs>
    <circle class="b" cx="250" cy="250" r="250"/>
    <circle class="b" cx="393.77" cy="432.72" r="65"/>
    <circle class="b" cx="446.94" cy="352.21" r="52.59"/>
    <path class="d" d="M377.77 367.83c-12.84 4.17-24.34 10.46-33.32 20.82-19.41 22.38-22.13 53.39-6.87 78.79.68 1.13 1.3 2.29 1.96 3.46-91.68 38.59-212.02 15.11-281.78-79.66-68.39-92.88-60.29-221.68 18.83-305.1 79.74-84.07 207.92-99.18 304.4-35.45 99.79 65.93 122.66 181.01 99.08 260.75-9.08-7.08-19.33-10.9-30.69-11.75-1.8-2.14-1.3-4.73-1.31-7.17-.05-16.13.07-32.25-.06-48.38-.1-12.7-1.98-25.15-6.11-37.23-7.58-22.13-27-36.12-50.33-36.22-9.14-.04-18.24-.28-27.09 2.92-11.19 4.05-20.19 10.67-26.59 20.75-.45.7-.85 1.44-1.38 2.07-.62.75-1.26 1.76-2.34 1.52-1.08-.24-1.32-1.39-1.53-2.37-.42-1.97-.31-3.97-.31-5.96-.01-17.12.02-34.25-.02-51.37-.01-6.11-.36-6.45-6.53-6.46-19.28-.03-38.57-.03-57.85 0-6.14.01-6.47.35-6.48 6.51-.03 14.63.02 29.26-.04 43.89-.01 2.41.56 5.06-1.63 7-2.59-.86-2.08-3.15-2.09-4.99-.1-16.62-.13-33.25 0-49.87.04-5.43 1.1-6.32 7.12-6.34 19.62-.07 39.23-.01 58.85-.04 1.65 0 3.32.26 5.53-.44-6.28-7.13-12.72-13.67-20.39-18.85-23.17-15.65-48.76-23.65-76.71-25.01-19.89-.97-39.49.21-58.78 5.09-22.72 5.74-43.3 15.81-61.16 31.21-27.59 23.8-42.55 54.36-48.06 89.89-4.86 31.4-3.07 62.44 7.84 92.41 15.55 42.76 45.19 71.68 88.14 86.82 16.09 5.67 32.67 8.28 49.73 9.5 28.41 2.03 55.25-3.14 80.89-14.96 12.28-5.66 23.29-13.47 33.36-22.53 2.27-2.04 3.97-4.46 4.93-7.39.68-6.3.28-12.62.29-18.92.06-23.42.01-46.85.03-70.27 0-7.58 1.33-14.85 4.99-21.61 4.78-8.84 12.44-11.87 22.06-11.33 9.01.51 15.36 4.86 19.1 12.98 2.62 5.66 3.73 11.74 3.75 17.93.11 33.06.06 66.12.04 99.18 0 2.16.05 4.35-1.43 6.18Z"/>
    <path class="e" d="M258.89 187.51c1.64-1.49.91-3.47.91-5.22.06-16.43.14-32.87-.04-49.3-.04-3.68.87-4.91 4.69-4.88 21.6.18 43.21.2 64.81-.01 4-.04 4.58 1.45 4.56 4.96-.14 20.79-.07 41.58-.07 63.33 3.36-4.82 5.72-9.29 9.36-12.88 10.46-10.34 22.98-15.57 37.49-16.17 11.33-.46 22.55-.07 33.19 4.66 19.04 8.47 28.45 24.25 32.66 43.88 2.32 10.81 3.25 21.78 3.09 32.89-.25 16.76-.12 33.53-.16 50.3-24.16.22-41.55 11.1-51.19 33.65-3.9 9.12-4.76 18.8-2.75 28.55.77 3.74.06 4.82-3.87 4.84-4.6.03-9.19 1.1-13.79 1.71-.05-35.36-.09-70.71-.17-106.07-.02-6.76-1.06-13.42-4.29-19.38-4.64-8.57-12.65-12.08-23.33-10.44-9.57 1.47-14.53 8.07-17.12 16.81-1.47 4.97-2.08 10.1-2.07 15.35.09 28.32.05 56.64.01 84.96 0 1.94.63 4.04-.8 5.81-2.15.42-2.83-1.47-3.79-2.65-16.79-20.42-34.13-40.37-50.75-60.94-3.84-4.76-4.54-4.88-9.77-1.45-1.25.82-2.45 1.71-3.8 2.37-2.07 1.02-3.51.55-4.12-1.84-.5-2.32-.39-4.67-.39-7.01-.01-29.07-.02-58.15 0-87.22 0-2.65-.32-5.37.86-7.9.21-.25.42-.5.64-.75Z"/>
    <path d="M451.88 430.54c-.09 32.9-23.47 57.51-54.43 59.66-29.2 2.02-55.76-20.14-59.83-49.91-4.73-34.62 22.73-65.56 57.6-65 3.33.05 5.24 1.12 7.05 4.08 8.45 13.78 20.73 22.27 36.84 24.45 4.62.63 6.91 2.59 8.47 6.75 2.71 7.24 4.38 14.6 4.3 19.98Z" style="fill:#10a045;stroke-width:0"/>
    <path d="M401.73 352.31c-.05-24.88 20.49-45.39 45.37-45.31 24.67.08 45 20.43 45.06 45.12.07 24.83-20.56 45.43-45.38 45.32-24.71-.12-45.01-20.45-45.06-45.12Z" style="fill:#0c5646;stroke-width:0"/>
    <path class="b" d="M259.25 293.07c2.8-1.74 5.8-3.23 8.33-5.29 2.92-2.38 4.54-1.72 6.81 1.04 11.46 13.95 23.14 27.72 34.77 41.53 6.93 8.23 13.9 16.44 20.85 24.65-4.19 8.18-11.81 12.88-18.85 17.98-19.61 14.21-41.71 22.53-65.63 25.55-40.83 5.15-79.91-.39-115.56-22.02-29.66-18-49.43-44.18-60.58-76.97-6.43-18.9-9.1-38.46-9.12-58.26-.03-33.65 6.98-65.65 25.9-94.11 15.26-22.95 35.8-39.84 61.09-50.89 21.42-9.35 43.84-13.66 67.19-14.4 34.66-1.1 66.84 6.17 95.59 26.2 8.42 5.87 16.1 12.59 22.48 20.92-1.95 1.24-3.8.7-5.53.7-21.11.05-42.22.12-63.33-.06-3.68-.03-4.75.85-4.71 4.65.17 18.28 0 36.57-.06 54.85l.04-.04c-2.74.69-4.74-1.14-6.92-2.16-17.92-8.34-36.19-9.2-54.61-2.15-15.85 6.07-26.4 17.47-31.53 33.69-5.25 16.6-4.94 33.25 1.85 49.23 8.35 19.65 24.06 30.24 44.86 33.78 14.3 2.43 27.7-.41 40.58-6.6 1.92-.93 3.75-2.23 6.08-1.81Z"/>
    <path class="d" d="M259.25 293.07c-26.38 16.76-61.75 13.26-82.26-8.47-11.26-11.93-15.62-26.69-15.74-42.82-.15-20.43 5.7-38.34 22.61-51.17 11.85-8.99 25.53-11.99 40.25-11.82 12.68.14 24.04 4.09 34.83 10.31.04 32.51.08 65.01.13 97.52 0 2.15.12 4.3.18 6.46Z"/>
    <path class="e" d="M258.94 133.31h21.07v59.14h-21.07z"/>
    <path class="e" d="M262.26 129.63h68.95v16.21h-68.95z"/>
    <circle class="e" cx="262.11" cy="132.84" r="3.21"/>
</svg>
